<?xml version="1.0" encoding="UTF-8" standalone="no"?>
<!-- Created with Inkscape (http://www.inkscape.org/) -->

<svg
   version="1.1"
   id="svg2"
   width="944.88"
   height="950.21332"
   viewBox="0 0 944.88 950.21332"
   sodipodi:docname="Айки-Систем.eps"
   xmlns:inkscape="http://www.inkscape.org/namespaces/inkscape"
   xmlns:sodipodi="http://sodipodi.sourceforge.net/DTD/sodipodi-0.dtd"
   xmlns="http://www.w3.org/2000/svg"
   xmlns:svg="http://www.w3.org/2000/svg">
  <defs
     id="defs6" />
  <sodipodi:namedview
     id="namedview4"
     pagecolor="#ffffff"
     bordercolor="#000000"
     borderopacity="0.25"
     inkscape:showpageshadow="2"
     inkscape:pageopacity="0.0"
     inkscape:pagecheckerboard="0"
     inkscape:deskcolor="#d1d1d1" />
  <g
     id="g8"
     inkscape:groupmode="layer"
     inkscape:label="ink_ext_XXXXXX"
     transform="matrix(1.3333333,0,0,-1.3333333,0,950.21333)">
    <g
       id="g10"
       transform="scale(0.1)">
      <path
         d="m 413.57,2335.23 67.246,-38.42 110.114,43.21 -137.664,80.62 -129.805,-50.93 -47.563,-153.3 113.032,44.35 24.64,74.47"
         style="fill:#47a7d4;fill-opacity:1;fill-rule:nonzero;stroke:none"
         id="path12" />
      <path
         d="m 468.48,2190.99 66.958,-37.68 112.3,44.07 -138.394,80.33 -131.258,-51.5 -46.832,-153.02 114.488,44.93 22.738,72.87"
         style="fill:#47a7d4;fill-opacity:1;fill-rule:nonzero;stroke:none"
         id="path14" />
      <path
         d="m 774.816,1793.32 -65.418,-75.76 -55.457,89.12 c 38.547,9.23 70.75,17.27 96.622,24.14 23.812,6.21 52.113,14.6 84.91,25.16 -24.969,-24.14 -45.184,-45.03 -60.657,-62.66 z m 167.196,229.51 -582.407,-119.74 91.461,-146.99 81.664,18.52 94.774,-152.31 -52.691,-65.07 91.46,-147 365.127,468.93 -89.388,143.66"
         style="fill:#47a7d4;fill-opacity:1;fill-rule:nonzero;stroke:none"
         id="path16" />
      <path
         d="m 1412.08,1421.37 -358.83,-124.69 c 34.7,30.23 67.21,60.12 97.48,89.66 l 151.38,147.72 -114.35,117.17 -399.182,-389.53 128.024,-131.19 361.618,126.3 c -25.74,-20.73 -59.54,-51.53 -101.4,-92.37 l -150.25,-146.63 113.79,-116.611 399.19,389.531 -127.47,130.64"
         style="fill:#47a7d4;fill-opacity:1;fill-rule:nonzero;stroke:none"
         id="path18" />
      <path
         d="m 1368.76,1684.47 c -30.72,-35.08 -44.89,-68.79 -42.51,-101.13 2.37,-32.34 19.79,-65.14 52.26,-98.41 30.27,-31.02 62.74,-48.23 97.42,-51.6 34.66,-3.39 68.06,9.5 100.18,38.65 l -57.44,58.87 c -15.65,-10.15 -29.45,-14.51 -41.43,-13.06 -11.99,1.44 -24.73,9.08 -38.22,22.9 -12.78,13.09 -20.83,26.2 -24.17,39.35 -3.36,13.15 0.98,27.77 13,43.88 l -59.09,60.55"
         style="fill:#47a7d4;fill-opacity:1;fill-rule:nonzero;stroke:none"
         id="path20" />
      <path
         d="m 2085.95,914.66 -176.68,116.27 -241.79,-78.141 c 28.01,39.711 44.3,63.051 48.9,70.031 l 62.66,93.8 -141.34,93.02 -306.61,-465.929 140.69,-92.582 90.44,137.422 70.73,16.289 -5.42,-256.192 178.64,-117.558 -8.34,413.41 288.12,70.16"
         style="fill:#47a7d4;fill-opacity:1;fill-rule:nonzero;stroke:none"
         id="path22" />
      <path
         d="m 2203.83,491.352 c 19.12,41.859 36.37,82.507 51.73,121.929 l 76.81,197.059 -152.55,59.461 -202.54,-519.68 170.79,-66.562 277.11,264.453 c -14.87,-29.524 -32.93,-71.532 -54.16,-126.02 l -76.24,-195.613 151.81,-59.168 202.55,519.668 -170.07,66.293 -275.24,-261.82"
         style="fill:#47a7d4;fill-opacity:1;fill-rule:nonzero;stroke:none"
         id="path24" />
      <path
         d="m 2686.93,254.832 239.87,-50.82 27.6,130.289 -239.87,50.808 -27.6,-130.277"
         style="fill:#47a7d4;fill-opacity:1;fill-rule:nonzero;stroke:none"
         id="path26" />
      <path
         d="m 3294.26,368.289 c 7.31,21.07 19.83,39.152 37.57,54.231 17.73,15.07 39.12,21.992 64.16,20.761 23.99,-1.179 43.48,-8.941 58.46,-23.269 14.98,-14.34 24.2,-34.133 27.67,-59.403 l 165.87,-8.16 c -1.1,62.793 -24.74,116.371 -70.91,160.742 -46.19,44.36 -103.19,68.219 -170.99,71.559 -83.46,4.102 -152.76,-20.328 -207.92,-73.301 -55.16,-52.969 -84.77,-120.918 -88.86,-203.859 -4.13,-83.988 17.98,-155.141 66.36,-213.4611 48.36,-58.3398 114.54,-89.55859 198.52,-93.687494 70.93,-3.492186 131.53,13.910194 181.79,52.218794 50.24,38.3086 79.54,94.3788 87.89,168.2188 l -168.22,8.281 c -11.81,-59.019 -43.26,-87.269 -94.37,-84.762 -33.39,1.641 -58.95,16.243 -76.67,43.774 -17.74,27.539 -25.45,64.519 -23.17,110.949 1.24,25.031 5.51,48.078 12.82,69.168"
         style="fill:#47a7d4;fill-opacity:1;fill-rule:nonzero;stroke:none"
         id="path28" />
      <path
         d="M 4085.15,612.852 3976.63,248.801 c -4.25,45.828 -9.51,89.668 -15.79,131.5 l -31.4,209.168 -161.91,-24.309 82.81,-551.5702 181.28,27.2188 108.83,367.2504 c 1.79,-32.996 7.02,-78.43 15.71,-136.258 l 31.17,-207.6213 161.13,24.1992 -82.81,551.5701 -180.5,-27.097"
         style="fill:#47a7d4;fill-opacity:1;fill-rule:nonzero;stroke:none"
         id="path30" />
      <path
         d="m 4838.58,477.23 c 12.24,-58.941 -5.64,-97.25 -53.67,-114.941 -31.36,-11.559 -60.59,-8.129 -87.68,10.274 -27.1,18.398 -48.67,49.406 -64.74,93.027 -8.66,23.519 -13.76,46.41 -15.28,68.672 -1.52,22.258 2.93,43.777 13.35,64.609 10.42,20.801 27.4,35.551 50.92,44.219 22.53,8.301 43.51,8.789 62.9,1.461 19.4,-7.332 35.63,-21.942 48.71,-43.832 l 155.83,57.41 c -25.59,57.351 -68.31,97.402 -128.17,120.16 -59.86,22.742 -121.64,22.391 -185.35,-1.07 -78.41,-28.887 -132.62,-78.5 -162.64,-148.828 -30.02,-70.332 -30.69,-144.461 -1.98,-222.371 29.06,-78.911 77.26,-135.731 144.6,-170.469 67.34,-34.75 140.45,-37.582 219.36,-8.512 66.64,24.543 115.59,64.281 146.84,119.203 31.24,54.918 36.26,117.988 15.04,189.207 L 4838.58,477.23"
         style="fill:#47a7d4;fill-opacity:1;fill-rule:nonzero;stroke:none"
         id="path32" />
      <path
         d="m 5439.4,1020.7 -74.89,122.24 -412.15,-252.471 74.88,-122.25 132.94,81.433 216.46,-353.363 145.62,89.211 -216.47,353.359 133.61,81.841"
         style="fill:#47a7d4;fill-opacity:1;fill-rule:nonzero;stroke:none"
         id="path34" />
      <path
         d="m 5852.66,1014.24 -55.15,59.97 196.04,180.29 -87.5,95.14 -196.04,-180.29 -47.19,51.31 216.22,198.86 -91.74,99.75 -340.19,-312.86 377.56,-410.539 345.95,318.169 -95.97,104.36 -221.99,-204.16"
         style="fill:#47a7d4;fill-opacity:1;fill-rule:nonzero;stroke:none"
         id="path36" />
      <path
         d="m 6099.83,1939.59 97.86,-107.21 c 68.86,-74.52 119.76,-127.55 152.68,-159.08 -58,26.97 -124.54,54.34 -199.63,82.1 l -140.41,50.85 -136.65,-203.58 463.09,-310.85 89.51,133.34 -89.55,59.16 c -92.65,61.55 -175.12,114.39 -247.4,158.51 l 391.95,-135.72 71.17,106.02 -274.52,310.68 c 91.33,-66.34 177.98,-127.01 259.93,-182.02 l 69.6,-46.71 89.5,133.34 -463.1,310.84 -134.03,-199.67"
         style="fill:#47a7d4;fill-opacity:1;fill-rule:nonzero;stroke:none"
         id="path38" />
      <path
         d="m 6633.9,2405.77 -140.59,-79.71 113.51,-45.27 70.22,38.62 22.18,-75.48 111.34,-44.4 -46.42,154.29 -130.24,51.95"
         style="fill:#47a7d4;fill-opacity:1;fill-rule:nonzero;stroke:none"
         id="path40" />
      <path
         d="m 6576.72,2262.43 -138.83,-79.56 113.51,-45.28 67.74,38.77 23.94,-75.33 108.41,-43.24 -45.97,153.27 -128.8,51.37"
         style="fill:#47a7d4;fill-opacity:1;fill-rule:nonzero;stroke:none"
         id="path42" />
      <path
         d="m 3546.1,4932.92 c 749.45,0 1357,-607.55 1357,-1357.01 0,-749.45 -607.55,-1357 -1357,-1357 -749.46,0 -1357.02,607.55 -1357.02,1357 0,749.46 607.56,1357.01 1357.02,1357.01 z m 0,-3925.94 c 1418.78,0 2568.93,1150.15 2568.93,2568.93 0,1418.79 -1150.15,2568.94 -2568.93,2568.94 -1418.79,0 -2568.94,-1150.15 -2568.94,-2568.94 0,-1418.78 1150.15,-2568.93 2568.94,-2568.93"
         style="fill:#47a7d4;fill-opacity:1;fill-rule:nonzero;stroke:none"
         id="path44" />
      <path
         d="m 3336.44,4282.32 c 250.65,-92.74 364.59,-308.5 437.64,-640.41 2.61,-11.87 19.75,-11.34 21.78,0.65 144.13,849.8 -449.22,969.58 -614.22,983.21 -19.8,1.64 -39.74,-0.35 -58.61,-6.58 -254.31,-84.09 -366.89,-280.63 -366.89,-280.63 147.46,18.43 397.15,11.53 580.3,-56.24"
         style="fill:#47a7d4;fill-opacity:1;fill-rule:nonzero;stroke:none"
         id="path46" />
      <path
         d="m 3683.51,3381.14 c -9.38,-7.74 -1.08,-22.74 10.52,-19.08 821.92,259.55 657.73,842.19 594.57,995.21 -7.58,18.37 -18.45,35.21 -32.61,49.15 -190.87,187.92 -417.13,198.4 -417.13,198.4 83.69,-122.79 191.49,-348.12 214.77,-542.01 31.86,-265.36 -108.13,-465.2 -370.12,-681.67"
         style="fill:#47a7d4;fill-opacity:1;fill-rule:nonzero;stroke:none"
         id="path48" />
      <path
         d="m 4225.24,3364.15 c -212.51,-162.08 -455.74,-142.83 -775.2,-26.88 -11.44,4.15 -20.16,-10.6 -11.12,-18.74 640.67,-576.62 1059.45,-139.53 1159.28,-7.47 11.98,15.86 20.98,33.76 25.81,53.04 65.1,259.82 -40.65,460.11 -40.65,460.11 C 4520,3689.8 4380.51,3482.58 4225.24,3364.15"
         style="fill:#47a7d4;fill-opacity:1;fill-rule:nonzero;stroke:none"
         id="path50" />
      <path
         d="m 3728.76,2872.74 c -248.8,97.6 -358.52,315.54 -425.11,648.8 -2.38,11.92 -19.52,11.72 -21.79,-0.23 -160.62,-846.83 430.29,-978.13 594.98,-994.97 19.77,-2.02 39.75,-0.42 58.73,5.45 255.9,79.12 372.28,273.43 372.28,273.43 -147.78,-15.56 -397.3,-3.8 -579.09,67.52"
         style="fill:#47a7d4;fill-opacity:1;fill-rule:nonzero;stroke:none"
         id="path52" />
      <path
         d="m 3410.95,3746.26 c 9.57,7.5 1.67,22.71 -10.02,19.35 -828.4,-238.06 -679.44,-824.77 -620.29,-979.39 7.11,-18.56 17.53,-35.68 31.32,-49.98 185.92,-192.82 411.82,-209.2 411.82,-209.2 -80.46,124.94 -182.36,353 -200.58,547.43 -24.94,266.09 120.21,462.22 387.75,671.79"
         style="fill:#47a7d4;fill-opacity:1;fill-rule:nonzero;stroke:none"
         id="path54" />
      <path
         d="m 2892,3790.66 c 231.91,132.83 470.53,81.88 772.04,-74.93 10.79,-5.61 21.37,7.88 13.47,17.13 -559.58,655.58 -1032.03,277.14 -1148.3,159.29 -13.95,-14.14 -25.22,-30.71 -32.53,-49.19 -98.59,-249.05 -19.99,-461.48 -19.99,-461.48 80.43,124.96 245.86,312.12 415.31,409.18"
         style="fill:#47a7d4;fill-opacity:1;fill-rule:nonzero;stroke:none"
         id="path56" />
      <path
         d="m 591.824,3186.76 -163.679,-16.47 -57.243,44.62 202.246,157.35 -20.324,201.93 c 9.676,19.08 15.739,40.66 18.004,64.87 6.063,92.79 -45.762,158.23 -155.488,196.31 -43.883,13.03 -116.008,24.25 -216.363,33.65 l -32.758,3.07 9.574,102.17 412.59,-38.65 15.855,169.25 -555.32,52.02 L 7.78125,3717.77 246.441,3695.41 c 18.719,-1.75 34.188,-3.33 46.372,-4.74 12.199,-1.41 26.421,-3.53 42.679,-6.35 16.258,-2.84 29.598,-6.06 40.004,-9.65 10.426,-3.61 20.5,-7.96 30.25,-13.06 9.75,-5.12 16.77,-11.41 21.051,-18.89 4.289,-7.48 5.98,-15.91 5.105,-25.26 -1.316,-14.04 -5.214,-24.97 -11.722,-32.74 L 538.281,3573.65 236.145,3317.87 0,3497.23 21.1836,3286.78 234.305,3148.41 c -48.481,-3.3 -76.875,-5.38 -85.192,-6.21 l -112.3161,-10.52 16.9492,-168.36 554.9449,55.87 -16.867,167.57"
         style="fill:#47a7d4;fill-opacity:1;fill-rule:nonzero;stroke:none"
         id="path58" />
      <path
         d="m 500.25,4348.4 c 12.566,-3.55 20.953,-10.81 25.18,-21.78 4.222,-10.96 4.625,-22.47 1.207,-34.54 -3.274,-11.56 -8.606,-23.2 -16,-34.95 -7.399,-11.75 -13.106,-18.96 -17.114,-21.61 l 128.887,-36.5 c 5.723,4.89 13.852,18.73 24.383,41.54 10.523,22.79 18.062,42.23 22.617,58.32 7.403,26.12 4.613,56.09 -8.336,89.88 -12.941,33.79 -33.617,62.85 -62.019,87.17 l -380.828,328.48 -51.012,-180.14 140.344,-102.43 c 21.554,-15.87 50.113,-32.92 85.664,-51.13 -32.356,2.65 -65.746,2.61 -100.18,-0.12 L 119.836,4456.94 68.8242,4276.8 469.477,4348.98 c 11.972,2.03 22.238,1.84 30.773,-0.58"
         style="fill:#47a7d4;fill-opacity:1;fill-rule:nonzero;stroke:none"
         id="path60" />
      <path
         d="m 717.461,4868.33 -92.211,45.04 36.785,75.32 c 13.754,28.15 26.535,47.19 38.356,57.11 11.82,9.92 27.355,10.17 46.589,0.78 18.301,-8.94 27.637,-21.06 28.02,-36.35 0.367,-15.3 -4.715,-33.74 -15.254,-55.32 z m 160.848,33.03 c 34.609,70.85 48.308,130.41 41.082,178.7 -7.223,48.28 -40.86,87.09 -100.934,116.43 -23.457,11.46 -46.352,17.55 -68.656,18.28 -22.317,0.73 -42.074,-2.55 -59.293,-9.83 -17.211,-7.29 -33.754,-17.96 -49.629,-32 -15.863,-14.04 -29.16,-28.77 -39.879,-44.16 -10.711,-15.41 -20.434,-32.02 -29.141,-49.84 l -55.007,-112.63 -66.164,32.32 129.609,265.37 -117.547,57.41 -202.5,-414.59 501.164,-244.78 116.895,239.32"
         style="fill:#47a7d4;fill-opacity:1;fill-rule:nonzero;stroke:none"
         id="path62" />
      <path
         d="m 1145,5707.67 c 20.77,23.46 38.17,38.4 52.21,44.8 14.04,6.4 29.08,2.51 45.11,-11.68 15.25,-13.5 21.01,-27.67 17.29,-42.51 -3.72,-14.85 -13.54,-31.26 -29.46,-49.24 l -63.86,-72.15 -76.84,68.02 z m 185.12,-141.89 c 52.26,59.04 81.36,112.79 87.29,161.26 5.93,48.45 -16.13,94.83 -66.19,139.14 -19.55,17.31 -39.99,29.28 -61.29,35.95 -21.31,6.65 -41.23,8.76 -59.77,6.34 -18.53,-2.43 -37.32,-8.29 -56.36,-17.58 -19.04,-9.3 -35.78,-19.95 -50.22,-31.92 -14.44,-11.98 -28.24,-25.4 -41.39,-40.25 l -83.077,-93.86 -55.136,48.81 195.743,221.14 -97.96,86.71 -305.815,-345.49 417.635,-369.68 176.54,199.43"
         style="fill:#47a7d4;fill-opacity:1;fill-rule:nonzero;stroke:none"
         id="path64" />
      <path
         d="m 1472.42,6287.82 c 26.95,20.64 56,26.29 87.18,16.96 31.17,-9.34 60.9,-32.46 89.17,-69.34 32.09,-41.87 49.21,-79.24 51.38,-112.12 2.16,-32.89 -10.64,-59.97 -38.4,-81.25 -28.2,-21.61 -58.3,-27.4 -90.3,-17.39 -32.02,10.01 -63.11,34.7 -93.3,74.08 -29.22,38.13 -44.32,73.93 -45.3,107.4 -0.97,33.47 12.22,60.69 39.57,81.66 z m 60.68,-417.87 c 74.01,-10.73 145.01,9.97 212.99,62.07 66.73,51.14 104.16,113.71 112.27,187.69 8.1,73.98 -14.36,145.59 -67.42,214.82 -53.37,69.64 -116.81,110.34 -190.31,122.11 -73.5,11.76 -143.41,-7.76 -209.73,-58.59 -68.81,-52.73 -107.66,-116.24 -116.54,-190.48 -8.89,-74.27 13.51,-146.42 67.19,-216.46 53.69,-70.06 117.54,-110.44 191.55,-121.16"
         style="fill:#47a7d4;fill-opacity:1;fill-rule:nonzero;stroke:none"
         id="path66" />
      <path
         d="m 2426.84,6347.12 -63.6,126.72 -269.55,-135.29 -36.54,72.81 238.04,119.48 -57.99,115.52 -238.03,-119.48 -31.28,62.31 262.55,131.77 -60.8,121.13 -413.07,-207.34 250.2,-498.48 420.07,210.85"
         style="fill:#47a7d4;fill-opacity:1;fill-rule:nonzero;stroke:none"
         id="path68" />
      <path
         d="m 2605.55,6853.43 c 38.11,11.05 61.25,2.53 69.39,-25.56 3.64,-12.54 2.12,-23.73 -4.55,-33.54 -6.67,-9.82 -17.78,-16.98 -33.33,-21.49 l -92.54,-26.82 -23.99,82.76 z m 147.71,-214.1 c 9.59,-33.11 -6.43,-55.69 -48.06,-67.76 l -101.57,-29.44 -29.23,100.81 101.57,29.45 c 41.63,12.06 67.4,1.04 77.29,-33.06 z m 9.12,-189.03 c 28.08,8.15 52.9,18.2 74.45,30.15 21.54,11.96 40.6,26.86 57.18,44.71 16.56,17.86 27.34,39.33 32.3,64.42 4.96,25.1 3.08,52.69 -5.64,82.78 -19.2,66.21 -63.03,101.08 -131.47,104.62 36.93,39.52 48.86,81.86 35.77,127 -25.88,89.28 -102.28,115.54 -229.17,78.75 l -270.11,-78.3 155.29,-535.7 281.4,81.57"
         style="fill:#47a7d4;fill-opacity:1;fill-rule:nonzero;stroke:none"
         id="path70" />
      <path
         d="m 3221.42,6797.29 c 46.39,2.84 70.87,-16.59 73.43,-58.29 2.49,-40.65 -19.72,-62.42 -66.64,-65.3 l -54.73,-3.35 -7.57,123.54 z m 21.2,-256.13 c 75.06,4.6 131.08,25.3 168.07,62.11 36.98,36.79 53.59,85.94 49.82,147.46 -3.67,59.93 -24.63,105.09 -62.85,135.45 -38.23,30.35 -94.35,43.27 -168.36,38.73 l -71.15,-4.36 -10.65,173.58 -170.45,-10.45 34.13,-556.7 231.44,14.18"
         style="fill:#47a7d4;fill-opacity:1;fill-rule:nonzero;stroke:none"
         id="path72" />
      <path
         d="m 3710.97,6569.87 -34.13,556.71 -170.45,-10.45 34.13,-556.7 170.45,10.44"
         style="fill:#47a7d4;fill-opacity:1;fill-rule:nonzero;stroke:none"
         id="path74" />
      <path
         d="m 3917.31,6532.86 66.47,79.09 c 15.49,17.64 34.48,42.39 56.97,74.25 7.89,-30.33 17.13,-58.77 27.73,-85.29 l 39.16,-98.21 204.26,-32.37 -150.94,323.72 216.58,230.59 -188.01,29.79 -57.75,-74.13 c -13.35,-17.45 -29.3,-39.76 -47.89,-66.96 -8.94,33.66 -18.32,62.91 -28.13,87.74 l -30.25,79.35 -198.07,31.39 140.87,-287.23 -246.75,-260.71 195.75,-31.02"
         style="fill:#47a7d4;fill-opacity:1;fill-rule:nonzero;stroke:none"
         id="path76" />
      <path
         d="m 5021.13,6558.27 c -16.61,-28.57 -37.16,-69.43 -61.63,-122.55 l -87.85,-190.67 147.99,-68.18 233.39,506.57 -165.78,76.37 L 4796.78,6515 c 21.6,40.64 41.26,80.18 58.96,118.6 l 88.5,192.1 -148.7,68.51 -233.38,-506.58 166.48,-76.7 292.49,247.34"
         style="fill:#47a7d4;fill-opacity:1;fill-rule:nonzero;stroke:none"
         id="path78" />
      <path
         d="m 5169.23,6163.95 c 8.95,-75.24 47.58,-137.38 115.88,-186.44 57.68,-41.43 118.02,-59.71 181.02,-54.81 63,4.91 118.04,36.09 165.13,93.58 l -136.79,98.26 c -41.95,-43.16 -83.71,-49.82 -125.27,-19.97 -27.14,19.51 -40.69,45.63 -40.63,78.38 0.05,32.76 13.64,68 40.76,105.76 14.63,20.35 30.73,37.39 48.31,51.13 17.58,13.73 37.91,22.12 60.99,25.16 23.07,3.03 44.8,-2.77 65.16,-17.39 19.51,-14.01 31.67,-31.11 36.47,-51.28 4.79,-20.17 1.8,-41.8 -9.01,-64.9 l 134.88,-96.89 c 33.16,53.34 42.39,111.17 27.7,173.49 -14.72,62.33 -49.64,113.3 -104.77,152.91 -67.87,48.75 -139.33,65.85 -214.41,51.3 -75.08,-14.56 -136.84,-55.55 -185.28,-122.99 -49.07,-68.29 -69.11,-140.05 -60.14,-215.3"
         style="fill:#47a7d4;fill-opacity:1;fill-rule:nonzero;stroke:none"
         id="path80" />
      <path
         d="m 5654.42,5681.17 119.76,112.78 72.58,-0.51 -64.51,-248 146.61,-155.69 87.5,404.14 296.52,1.63 -145,153.98 -253.3,-20.11 c 36.42,32.16 57.68,51.1 63.77,56.83 l 82.65,76.76 -116,123.18 -406.04,-382.38 115.46,-122.61"
         style="fill:#47a7d4;fill-opacity:1;fill-rule:nonzero;stroke:none"
         id="path82" />
      <path
         d="m 6136.69,5353.56 c -10.96,-7.09 -21.95,-8.61 -32.98,-4.54 -11.03,4.06 -19.94,11.35 -26.75,21.88 -6.53,10.09 -11.76,21.78 -15.71,35.09 -3.94,13.31 -5.6,22.35 -4.95,27.12 l -112.47,-72.77 c -0.09,-7.52 4.94,-22.77 15.13,-45.72 10.18,-22.96 19.81,-41.45 28.9,-55.49 14.74,-22.79 39.1,-40.47 73.04,-53.04 33.93,-12.57 69.41,-16.21 106.42,-10.92 l 498.11,69.41 -101.7,157.19 -169.57,-37.86 c -26.16,-5.72 -57.81,-15.93 -94.94,-30.63 23.33,22.56 45.34,47.68 66,75.36 l 104.04,139.15 -101.7,157.19 -210.13,-348.67 c -6.38,-10.34 -13.29,-17.93 -20.74,-22.75"
         style="fill:#47a7d4;fill-opacity:1;fill-rule:nonzero;stroke:none"
         id="path84" />
      <path
         d="m 6453.68,5072.49 c -77.64,-32.3 -132.41,-82.81 -164.34,-151.53 -31.93,-68.72 -31.75,-141.89 0.56,-219.53 27.28,-65.56 69.01,-112.83 125.17,-141.78 56.17,-28.95 119.39,-31.36 189.66,-7.21 l -64.7,155.5 c -58.37,-14.67 -97.39,1.62 -117.05,48.87 -12.84,30.86 -10.63,60.21 6.64,88.03 17.26,27.84 47.35,50.67 90.27,68.53 23.14,9.63 45.79,15.67 67.98,18.11 22.17,2.43 43.86,-1.12 65.1,-10.67 21.22,-9.54 36.65,-25.9 46.29,-49.04 9.23,-22.17 10.58,-43.11 4.07,-62.79 -6.53,-19.69 -20.45,-36.51 -41.79,-50.48 l 63.8,-153.33 c 56.25,27.94 94.5,72.28 114.77,133.03 20.25,60.75 17.34,122.47 -8.74,185.14 -32.1,77.15 -83.91,129.27 -155.42,156.36 -71.51,27.09 -145.6,24.69 -222.27,-7.21"
         style="fill:#47a7d4;fill-opacity:1;fill-rule:nonzero;stroke:none"
         id="path86" />
      <path
         d="m 6685.11,4493.2 c -82.38,-16.87 -145.8,-55.97 -190.28,-117.32 -44.48,-61.34 -58.28,-133.2 -41.41,-215.58 14.24,-69.57 46.16,-123.95 95.76,-163.1 49.59,-39.15 111.19,-53.6 184.78,-43.33 l -33.78,165 c -60.11,-3.24 -95.29,20.2 -105.55,70.34 -6.71,32.75 1.07,61.13 23.35,85.14 22.26,24.02 56.16,40.69 101.7,50.01 24.56,5.03 47.95,6.62 70.19,4.77 22.23,-1.84 42.84,-9.48 61.86,-22.91 19,-13.43 31.03,-32.43 36.06,-56.99 4.81,-23.53 2.14,-44.34 -8.02,-62.41 -10.17,-18.07 -27.04,-31.92 -50.66,-41.56 l 33.31,-162.69 c 60.56,16.66 106.58,52.87 138.09,108.63 31.48,55.76 40.43,116.9 26.81,183.4 -16.76,81.86 -57.64,142.92 -122.66,183.18 -65.02,40.27 -138.19,52.07 -219.55,35.42"
         style="fill:#47a7d4;fill-opacity:1;fill-rule:nonzero;stroke:none"
         id="path88" />
      <path
         d="m 6935.78,3741.26 -414.28,-9.51 3.92,-170.73 414.28,9.52 3.6,-156.64 143.31,3.3 -11.09,483.2 -143.32,-3.29 3.58,-155.85"
         style="fill:#47a7d4;fill-opacity:1;fill-rule:nonzero;stroke:none"
         id="path90" />
      <path
         d="m 6616.03,3071.27 16.1,104.52 103.75,-15.98 -16.1,-104.52 c -6.6,-42.83 -27.45,-61.56 -62.55,-56.15 -34.06,5.25 -47.79,29.29 -41.2,72.13 z m 211.25,-23.02 14.67,95.23 85.16,-13.12 -13.47,-87.49 c -6.04,-39.21 -23.52,-56.61 -52.42,-52.16 -12.91,1.99 -22.41,8.08 -28.5,18.26 -6.09,10.19 -7.9,23.29 -5.44,39.28 z m -345.32,22.26 c -4.44,-28.9 -5.79,-55.64 -4.02,-80.22 1.76,-24.57 7.25,-48.14 16.45,-70.69 9.21,-22.55 24.15,-41.37 44.81,-56.44 20.67,-15.08 46.48,-24.99 77.45,-29.76 68.13,-10.5 118.22,14.56 150.28,75.13 20.28,-50.14 53.64,-78.8 100.1,-85.95 91.87,-14.15 147.87,44.08 167.98,174.65 l 42.8,277.95 -551.25,84.9 -44.6,-289.57"
         style="fill:#47a7d4;fill-opacity:1;fill-rule:nonzero;stroke:none"
         id="path92" />
    </g>
  </g>
</svg>
